<svg xmlns="http://www.w3.org/2000/svg" viewBox="0 0 560 80"><style><![CDATA[.F{stroke-linejoin:round}.G{stroke-width:1.5}.H{stroke-linecap:round}]]></style><g fill="none" stroke="#000" class="F G"><path d="M305.57 33.7h-2.3V27.1a1.94 1.94 0 0 0-1.94-1.94h-8.52a1.94 1.94 0 0 0-1.94 1.94v6.58h-4.64V27.1a1.94 1.94 0 0 0-1.94-1.94h-8.52a1.94 1.94 0 0 0-1.94 1.94v6.58h-4.64V27.1a1.94 1.94 0 0 0-1.94-1.94h-8.53a1.94 1.94 0 0 0-1.94 1.94v6.58h-2.33a1.94 1.94 0 0 0-1.94 1.94V52.9a1.94 1.94 0 0 0 1.94 1.94h51.12a1.94 1.94 0 0 0 1.94-1.94V35.63a1.93 1.93 0 0 0-1.93-1.94z"/><path d="M256.38 33.7h47.24" class="H"/></g><circle cx="40" cy="40" r="23"/><g fill="none" stroke="#000" class="F G"><g class="H"><path d="M227.5 33.54l-7.76-5.28a1.49 1.49 0 0 0-1.69 0l-7.76 5.28a1.49 1.49 0 0 1-1.69 0l-7.76-5.28a1.49 1.49 0 0 0-1.69 0l-7.76 5.28a1.48 1.48 0 0 1-1.68 0l-7.77-5.28a1.48 1.48 0 0 0-1.68 0l-7.76 5.28m0-9.1l7.76-5.28a1.48 1.48 0 0 1 1.68 0l7.77 5.28a1.48 1.48 0 0 0 1.68 0l7.76-5.28a1.49 1.49 0 0 1 1.69 0l7.76 5.28a1.49 1.49 0 0 0 1.69 0l7.76-5.28a1.49 1.49 0 0 1 1.69 0l7.76 5.3m0 27.28l-7.76-5.28a1.49 1.49 0 0 0-1.69 0l-7.76 5.28a1.49 1.49 0 0 1-1.69 0l-7.76-5.28a1.49 1.49 0 0 0-1.69 0l-7.76 5.28a1.48 1.48 0 0 1-1.68 0l-7.77-5.28a1.48 1.48 0 0 0-1.68 0l-7.76 5.28m55 9.1l-7.76-5.3a1.51 1.51 0 0 0-1.69 0l-7.76 5.28a1.49 1.49 0 0 1-1.69 0l-7.76-5.28a1.49 1.49 0 0 0-1.69 0l-7.76 5.28a1.48 1.48 0 0 1-1.68 0l-7.77-5.28a1.48 1.48 0 0 0-1.68 0l-7.76 5.28m0-18.18l7.76-5.28a1.48 1.48 0 0 1 1.68 0l7.77 5.28a1.48 1.48 0 0 0 1.68 0l7.76-5.28a1.49 1.49 0 0 1 1.69 0l7.76 5.28a1.49 1.49 0 0 0 1.69 0l7.76-5.28a1.49 1.49 0 0 1 1.69 0l7.76 5.28M429.86 38l16.5-10.7v.07l.06.1a8.22 8.22 0 0 0-.54 7.58l14.14-8.16a8.25 8.25 0 0 0-7.22-3.3l-2.95-5.12a2 2 0 0 0-2.71-.73l-3 1.76a2 2 0 0 0-.72 2.71l1 1.76-16.75 10.9m-2 9.27l10.6 14.44h4.78L429 42.13m26.1-15.03a4.9 4.9 0 0 0-2.63-.61"/><path d="M447.52 20.53l1.4 2.45"/></g><path d="M419.94 39.13a5 5 0 1 1 5 5 5 5 0 0 1-5-5zM443 58.6h-8.56a4.36 4.36 0 0 0-4.33 3.89h17.22A4.36 4.36 0 0 0 443 58.6z"/></g><path d="M424.9 36.9a2.21 2.21 0 1 0 2.2 2.21 2.21 2.21 0 0 0-2.2-2.21z"/><g fill="none" stroke="#000" class="F G"><path d="M360 28.5a14.14 14.14 0 0 0-5.67 27.09l.8 3.4c.3 1.62 1.1 2.38 2.38 2.38h.5a1.13 1.13 0 0 0 1.13 1.13h1.17a1.11 1.11 0 0 0 1.13-1.13h.84c1.32 0 2.1-.95 2.38-2.38l.75-3.33a14.13 14.13 0 0 0-5.4-27.17z"/><path d="M371.1 27.6l4-4M348.88 27l-4-4m15.12.2v-5.7m-5.4 39.17h10.53m-2.25-18l-4.43 5.04 4.7.35-5.04 6.35 4.78.43-3.9 5.65m-6.84-21.57s-3 3.5-3.12 7.47" class="H"/></g><path d="M129.6 37l-1.65 6h6.5l-1.37 5h-6.44l-2.1 7.87h-5.2l2.1-7.87h-7.64l-2.1 7.87h-5.2l2.17-7.87h-6.1l1.37-4.9h6l1.65-6h-6l1.3-5h6l2.1-7.87h5.2L118.15 32h7.64l2.1-7.87h5.2L130.92 32h6.5l-1.37 5zm-5.2 0h-7.64l-1.6 6h7.64z"/><path d="M524.35 61.66v-7.18c-1.86 4.56-8.1 8-13.85 8-7.17 0-9.88-4.64-9.88-9 0-5 3.3-9.54 12.33-13.34l11.23-4.65c-1-4.4-5.15-5.82-10-5.82-4.13 0-8.86 1-11.9 3.12a16.65 16.65 0 0 1 7-11.9A19.72 19.72 0 0 1 521 17.5c12.67 0 18.4 7 18.4 17.22v26.94zm0-9.46v-9.7h-9.3a10.32 10.32 0 0 0-.59 3.63c0 3.12 1.7 6.33 6.25 6.33a25.23 25.23 0 0 0 3.63-.25z" fill="#00f"/></svg>